<?xml version="1.0" standalone="no"?>
<!DOCTYPE svg PUBLIC "-//W3C//DTD SVG 20010904//EN"
 "http://www.w3.org/TR/2001/REC-SVG-20010904/DTD/svg10.dtd">
<svg version="1.0" xmlns="http://www.w3.org/2000/svg"
 width="1070.000000pt" height="1280.000000pt" viewBox="0 0 1070.000000 1280.000000"
 preserveAspectRatio="xMidYMid meet">
<metadata>
Created by potrace 1.15, written by Peter Selinger 2001-2017
</metadata>
<g transform="translate(0.000000,1280.000000) scale(0.100000,-0.100000)"
fill="#000000" stroke="none">
<path d="M3495 12789 c-112 -15 -319 -66 -395 -98 -122 -51 -306 -169 -975
-627 -849 -581 -1026 -690 -1460 -904 -266 -131 -366 -170 -535 -212 l-130
-32 57 -59 c180 -184 431 -308 662 -327 126 -10 203 -34 321 -98 204 -111 275
-137 412 -152 113 -13 228 -41 311 -75 173 -73 280 -95 452 -95 139 0 238 -18
392 -72 166 -59 211 -58 405 9 l146 51 48 -112 c137 -324 198 -406 442 -596
l33 -26 -31 -74 c-44 -106 -60 -181 -60 -286 0 -298 152 -646 384 -878 101
-101 240 -216 260 -216 8 0 19 -7 26 -15 18 -22 -26 -107 -94 -182 -101 -110
-200 -288 -244 -438 -19 -68 -27 -460 -13 -675 6 -99 19 -197 31 -245 39 -154
166 -374 323 -559 45 -54 90 -109 100 -122 l19 -24 -77 -87 c-90 -103 -200
-264 -256 -375 -66 -131 -73 -173 -71 -413 3 -422 37 -539 234 -796 296 -389
284 -372 275 -411 -4 -13 -31 -56 -60 -95 -66 -87 -94 -163 -109 -300 -27
-237 45 -559 164 -730 22 -32 64 -83 92 -113 131 -139 134 -157 51 -294 -31
-51 -63 -115 -72 -142 -33 -107 -27 -384 13 -539 38 -147 131 -286 248 -369
56 -41 204 -117 307 -159 l36 -15 6 -278 c8 -379 24 -462 98 -515 25 -17 37
-20 57 -13 77 27 95 139 118 717 l6 167 77 0 c42 0 103 7 134 15 306 80 499
435 458 845 -12 128 -30 174 -108 291 -28 41 -57 88 -66 106 l-17 31 61 79
c33 43 92 119 130 168 124 161 207 351 229 532 26 202 -30 428 -156 629 -31
51 -53 75 -74 83 -22 7 -30 16 -30 33 0 38 80 132 240 286 159 152 220 227
269 332 58 123 66 183 66 505 -1 427 -12 457 -286 747 l-123 130 70 61 c127
112 265 251 314 316 169 225 230 437 230 798 0 383 -59 531 -340 858 -66 77
-120 142 -120 145 0 3 57 66 126 140 247 265 343 393 420 554 76 161 103 307
104 552 0 144 8 161 110 237 153 113 253 234 341 409 33 65 69 124 82 133 13
8 70 21 128 29 104 14 157 19 624 57 406 32 554 61 690 132 l80 42 169 -3
c192 -3 218 2 375 73 136 61 239 91 375 110 208 28 323 85 470 231 163 162
242 317 189 369 -15 15 -33 16 -160 10 -175 -9 -208 -2 -368 74 -356 171 -872
487 -1331 817 -440 317 -565 405 -725 512 -367 244 -538 325 -814 386 -437 97
-729 35 -961 -206 -117 -121 -176 -219 -221 -365 -24 -79 -27 -104 -27 -248
-1 -137 3 -172 22 -245 32 -120 84 -225 169 -343 42 -59 72 -110 71 -122 -4
-28 -80 -71 -182 -100 -77 -22 -108 -25 -236 -25 l-147 0 -7 98 c-3 53 -9 185
-12 292 -7 234 0 276 80 477 81 204 92 288 56 427 -40 158 -137 283 -270 350
-93 46 -163 59 -285 53 -162 -8 -289 -62 -401 -172 -117 -116 -172 -263 -160
-430 7 -98 24 -158 83 -293 63 -147 75 -213 77 -432 1 -214 -9 -273 -58 -325
-40 -42 -124 -68 -221 -69 -59 -1 -77 3 -118 27 -58 34 -174 141 -182 168 -8
24 31 86 124 199 68 81 141 222 162 310 21 86 17 240 -10 345 -94 370 -370
610 -771 670 -104 16 -256 18 -365 4z m2800 -3822 c29 -22 12 -59 -62 -138
-94 -100 -249 -213 -377 -275 -134 -66 -161 -69 -183 -17 -15 36 -14 40 7 80
37 71 156 156 365 261 66 34 134 70 150 81 35 23 74 26 100 8z m-1750 -65
c175 -80 383 -206 424 -258 44 -56 18 -90 -62 -81 -129 16 -427 210 -519 339
-43 61 23 60 157 0z m444 -1696 c19 -23 31 -169 31 -381 -1 -257 -14 -322 -60
-280 -47 43 -123 207 -141 310 -26 136 60 365 137 365 12 0 27 -6 33 -14z
m721 -137 c22 -23 55 -71 72 -107 29 -59 33 -76 32 -147 0 -57 -7 -96 -22
-136 -41 -105 -118 -197 -143 -172 -19 19 -32 143 -32 328 0 197 11 275 38
275 8 0 33 -19 55 -41z m-636 -2211 c9 -12 16 -38 16 -56 0 -43 -39 -210 -50
-217 -15 -9 -40 94 -40 162 0 70 21 133 44 133 8 0 22 -10 30 -22z m547 -85
c17 -44 6 -204 -18 -250 -11 -21 -26 -38 -34 -38 -21 0 -18 226 4 278 19 44
34 47 48 10z m-496 -1760 c0 -99 -15 -126 -39 -68 -21 48 -20 118 0 157 15 29
17 30 27 12 6 -10 11 -56 12 -101z m-26 -1267 c51 -62 66 -576 21 -730 l-12
-39 -43 79 c-116 211 -143 443 -70 601 23 52 65 103 83 103 5 0 15 -6 21 -14z
m440 -111 c38 -33 49 -66 61 -194 10 -104 0 -263 -19 -313 -14 -38 -61 -88
-82 -88 -10 0 -24 10 -30 22 -28 52 -19 522 11 578 14 26 22 25 59 -5z"/>
</g>
</svg>
